<svg id="fbf52c39-73c3-4db6-8fe1-1a6506dbe20f" data-name="Layer 1" xmlns="http://www.w3.org/2000/svg" viewBox="0 0 90.61 15.28"><defs><style>.b45415d7-9e8c-4195-8eae-4ad9ff0233cb,.ba8d4e9c-ebad-4770-b63e-096e952d1361{fill:#fff;}.ba8d4e9c-ebad-4770-b63e-096e952d1361{isolation:isolate;}</style></defs><title>logo-white-small</title><path class="b45415d7-9e8c-4195-8eae-4ad9ff0233cb" d="M88.23,11.9a2.74,2.74,0,0,1,2.84-2.43,2.42,2.42,0,0,1,2.58,2.43Zm7.85,1.79c0-.29,0-.52,0-.79a5.08,5.08,0,0,0-5.24-5.43,5,5,0,0,0-5.23,5.26c0,3.29,2.36,5.52,5.79,5.52a5.83,5.83,0,0,0,4.18-1.54L94.31,15.4a3.9,3.9,0,0,1-2.58.81c-1.91,0-3.37-1-3.54-2.52Zm-20-1.79a2.73,2.73,0,0,1,2.83-2.43,2.42,2.42,0,0,1,2.58,2.43ZM84,13.69c0-.29,0-.52,0-.79a5.09,5.09,0,0,0-5.25-5.43,5,5,0,0,0-5.22,5.26c0,3.29,2.35,5.52,5.79,5.52a5.86,5.86,0,0,0,4.18-1.54L82.18,15.4a3.9,3.9,0,0,1-2.58.81c-1.92,0-3.37-1-3.54-2.52Zm-22.8,4.37h5.43V16.48l-1.52-.27V14.75l1.57-1.5,2.25,3-1.21.27v1.58H73.1V16.48l-1.56-.29-3.33-4.33,2.62-2.35,1.46-.27V7.65H66.86V9.13l1.06.23L65.07,12V3H61.15V4.55l1.52.27V16.21l-1.52.27v1.58Z" transform="translate(-5.51 -2.97)"/><path class="ba8d4e9c-ebad-4770-b63e-096e952d1361" d="M48.48,9.51v6.7l-1.5.27v1.58h5.41V16.48l-1.5-.27v-3.6c0-1.83,1.12-3.17,2.73-3.17A2.39,2.39,0,0,1,56,12v4.18l-1.52.27v1.58h5.43V16.48l-1.52-.27V11.55a3.87,3.87,0,0,0-4.08-4.08,4.23,4.23,0,0,0-3.45,1.64V7.65H47V9.24ZM37.63,12.86a3,3,0,1,1,6.06,0,3,3,0,1,1-6.06,0m-2.58,0a5.25,5.25,0,0,0,5.6,5.39,5.27,5.27,0,0,0,5.62-5.39,5.26,5.26,0,0,0-5.62-5.39,5.24,5.24,0,0,0-5.6,5.39m-4.77-8V15.38a2.77,2.77,0,0,0,2.94,2.87,2.94,2.94,0,0,0,2.22-.94l-1.1-1.43a1,1,0,0,1-.71.31.9.9,0,0,1-.93-1V3H28.78V4.55Zm-7.16,8.45a5.6,5.6,0,0,1,1.61.23,2.61,2.61,0,0,1-2.61,2.81c-1.08,0-1.85-.54-1.85-1.33,0-1,1.17-1.71,2.85-1.71m-1.79,5a4.32,4.32,0,0,0,3.4-1.52v1.33h3.91V16.48l-1.5-.27V11.05c0-2.13-1.89-3.58-4.54-3.58a6.65,6.65,0,0,0-4.52,1.62l1.15,1.42a5.47,5.47,0,0,1,3.12-1c1.4,0,2.38.66,2.38,1.64v.69a9.06,9.06,0,0,0-1.82-.19c-3.06,0-5.18,1.48-5.18,3.58,0,1.77,1.48,3,3.6,3M10.67,11.94c2.4.5,3.33,1.25,3.33,2.19,0,1.1-1.29,1.91-3.14,1.91a7.25,7.25,0,0,1-3.06-.72l-.35-2.11H5.59v3.31A9.33,9.33,0,0,0,11,18.25c3.29,0,5.53-1.83,5.53-4.29,0-2.1-1.68-3.66-5.12-4.33C9,9.13,8.07,8.34,8.07,7.36s1.17-1.85,2.85-1.85a6.07,6.07,0,0,1,2.61.6l.37,2.21h1.85V5a8.17,8.17,0,0,0-5.1-1.71c-3.08,0-5.14,1.75-5.14,4.21,0,2.21,1.69,3.75,5.16,4.43" transform="translate(-5.51 -2.97)"/></svg>